<svg width="100" height="100" viewBox="0 0 100 100" fill="none" xmlns="http://www.w3.org/2000/svg">
<path d="M0 11.1111V88.8889C0 95 4.94444 100 11.1111 100H88.8889C95 100 100 95 100 88.8889V11.1111C100 5 95 0 88.8889 0H11.1111C4.94444 0 0 5 0 11.1111ZM66.6667 33.3333C66.6667 42.5556 59.2222 50 50 50C40.7778 50 33.3333 42.5556 33.3333 33.3333C33.3333 24.1111 40.7778 16.6667 50 16.6667C59.2222 16.6667 66.6667 24.1111 66.6667 33.3333ZM16.6667 77.7778C16.6667 66.6667 38.8889 60.5555 50 60.5555C61.1111 60.5555 83.3333 66.6667 83.3333 77.7778V83.3333H16.6667V77.7778Z" fill="#329A3C"/>
</svg>
