<svg width="100" height="100" viewBox="0 0 100 100" fill="none" xmlns="http://www.w3.org/2000/svg">
<path d="M50 0C22.3828 0 0 22.3828 0 50C0 77.6172 22.3828 100 50 100C77.6172 100 100 77.6172 100 50C100 22.3828 77.6172 0 50 0ZM49.5312 10C49.6875 10 49.8438 10 50 10C52.6562 10 55.293 10.293 57.8125 10.7812L55.4688 10.4688L54.0625 20.3125L55.7812 20.625L58.4375 21.25L60.9375 11.5625C62.8711 12.1094 64.7656 12.7734 66.5625 13.5938L62.1875 22.6562L64.0625 23.4375L64.5312 23.75L66.0938 24.6875L71.25 16.25C72.9492 17.3242 74.5898 18.3789 76.0938 19.6875L69.375 27.1875L70.4688 28.125L45 45L27.9688 70.4688L27.3438 69.6875L20 76.4062C18.6719 74.8828 17.5 73.2617 16.4062 71.5625L24.8438 66.4062L23.75 64.5312L23.4375 64.0625L22.8125 62.5L13.75 66.875C12.9102 65.0781 12.2852 63.1836 11.7188 61.25L21.25 58.75L20.625 55.7812L20.3125 54.375L10.4688 55.7812C10.2148 53.9844 10.0195 52.168 10 50.3125L15 50H15.7812L20 50.3125V49.6875L20.1562 47.1875V46.7188L20.3125 45.9375L10.4688 44.375L10.3125 45.625L10.1562 45.9375C10.2148 45.4102 10.3906 44.8828 10.4688 44.375C10.7227 42.5586 11.0742 40.7812 11.5625 39.0625L21.25 41.5625V41.25L21.4062 40.9375V40.7812L22.5 38.125L22.6562 37.8125L13.5938 33.4375C14.3555 31.7383 15.2539 30.1562 16.25 28.5938L24.8438 33.75L25 33.4375L25.1562 33.2812L25.3125 32.9688L26.7188 31.0938L27.1875 30.625L19.6875 23.9062C20.8789 22.5195 22.2266 21.2109 23.5938 20L30.3125 27.3438L30.7812 27.0312L31.0938 26.7188L32.9688 25.3125L33.125 25.1562L33.4375 25H33.5938L28.2812 16.4062C29.8242 15.4102 31.4453 14.5312 33.125 13.75L37.5 22.8125L38.125 22.5L40.7812 21.4062L41.25 21.25L38.75 11.7188C40.4883 11.2109 42.2461 10.7422 44.0625 10.4688C44.668 10.3711 45.3125 10.2148 45.9375 10.1562L45.625 10.3125L44.0625 10.4688L45.625 20.3125L46.7188 20.1562H47.1875L50 20L49.5312 10ZM58.125 10.7812C58.8867 10.9375 59.5703 11.2109 60.3125 11.4062L58.2812 10.9375L58.125 10.7812ZM80 23.5938C81.3086 25.0781 82.5195 26.6211 83.5938 28.2812L75 33.4375L76.25 35.4688L76.5625 35.9375L77.1875 37.3438L86.25 33.125C87.0703 34.8828 87.7148 36.7188 88.2812 38.5938L78.5938 41.0938L79.375 44.2188H79.5312L79.6875 45.4688L89.5312 44.0625C89.8047 45.8398 89.9805 47.6758 90 49.5312L82.8125 49.8438L80 49.6875V50.3125L79.8438 52.8125V53.2812L79.6875 54.2188L89.5312 55.7812L89.6875 54.375L89.8438 54.0625C89.7852 54.6289 89.6094 55.2148 89.5312 55.7812C89.2773 57.5781 88.9258 59.375 88.4375 61.0938H88.2812L78.75 58.5938V58.75L78.5938 59.0625V59.2188L77.5 61.875L77.3438 62.3438L86.25 66.7188C85.5078 68.3398 84.707 69.9023 83.75 71.4062L75.1562 66.25L75 66.5625L74.8438 66.7188L74.6875 67.0312L73.2812 68.9062L72.9688 69.2188L72.8125 69.5312L80.1562 76.25C78.9453 77.6367 77.6367 78.9453 76.25 80.1562L69.5312 72.6562L68.9062 73.2812L67.0312 74.6875L66.5625 75L66.4062 75.1562L71.5625 83.5938C70 84.5898 68.418 85.4688 66.7188 86.25L62.3438 77.3438L61.875 77.5L59.2188 78.5938H59.0625L58.75 78.75H58.5938L61.0938 88.2812V88.4375C59.375 88.9258 57.5781 89.2773 55.7812 89.5312C55.2148 89.6094 54.6289 89.7852 54.0625 89.8438L54.375 89.6875L55.7812 89.5312L54.2188 79.6875L53.2812 79.8438H52.8125L49.8438 80L50.3125 90C50.2148 90 50.0977 90 50 90C48.0859 90 46.2109 89.7852 44.375 89.5312L45.7812 79.6875L44.2188 79.375L41.4062 78.75L38.9062 88.2812C37.0508 87.7344 35.1758 87.207 33.4375 86.4062L37.6562 77.3438L35.9375 76.5625L35.4688 76.25L33.75 75.1562L28.5938 83.75C26.875 82.6562 25.2734 81.4844 23.75 80.1562L30.4688 72.8125L29.5312 72.0312L55 55L71.875 29.5312L72.5 30.3125L80 23.5938ZM88.4375 39.0625C88.7109 40 89.0234 40.8984 89.2188 41.875L89.0625 41.7188L88.4375 39.0625ZM90 49.6875C90 49.7852 90 49.9023 90 50C90 50.0977 90 50.2148 90 50.3125L85 50L90 49.6875ZM10.7812 58.125L10.9375 58.2812L11.25 59.6875C11.1133 59.1602 10.8984 58.6719 10.7812 58.125ZM40.1562 88.75L41.7188 89.0625L41.875 89.2188C41.2891 89.1016 40.7422 88.9062 40.1562 88.75Z" fill="white"/>
</svg>
